<?xml version="1.0" encoding="UTF-8"?>
<svg id="Capa_2" data-name="Capa 2" xmlns="http://www.w3.org/2000/svg" viewBox="0 0 546.52 700.78">
  <defs>
    <style>
      .cls-1 {
        fill: #fff;
      }

      .cls-2 {
        fill: #3ba6ff;
      }

      .cls-3 {
        fill: #0a2c7e;
      }
    </style>
  </defs>
  <g id="Capa_1-2" data-name="Capa 1">
    <g>
      <path class="cls-2" d="M341.42,289.8c.03,3.95,.13,7.9,.05,11.85-.04,2,.64,3.04,2.67,3.52,2.15,.5,4.29,.7,6.4,.31,2.27-.42,4.52-.44,6.79-.44,7.9,0,15.81,.2,23.71-.1,8-.3,15.98-1,23.96-1.71,2.4-.21,4.79-.41,7.16-.22,9.44,.78,18.9,.48,28.36,.67,.72,.01,1.49-.11,2.14,.1,3.84,1.24,6.37-.55,8.59-3.42,2.85-3.71,6.16-7.03,9.59-10.2,6.93-6.4,14.96-10.66,24.39-12,5.61-.8,11.07,.22,16.13,2.36,7.38,3.12,14.53,6.79,20.65,12.16,2.26,1.99,4.41,4.02,6.09,6.55,1.86,2.79,3.95,5.42,5.78,8.22,5.19,7.93,8.05,16.56,7.28,26.13-.24,2.98-.88,5.93-2.65,8.48-2.25,3.23-5.03,3.23-7.05-.07-.87-1.42-1.5-2.99-2.18-4.53-2.94-6.69-6.24-13.2-9.75-19.61-3.68-6.7-9.09-11.49-15.56-15.51-8.32-5.18-17.24-6.06-26.59-5.14-3,.3-5.74,1.48-8.36,3.04-3.98,2.38-7.15,5.61-10.15,9.04-2.75,3.14-3.33,7.17-3.78,11.05-.67,5.82-.87,11.68-.95,17.55-.13,9.69,4.69,16.53,11.59,22.43,1.56,1.34,3.3,2.33,5.34,2.82,3.79,.91,6.49-.48,7.79-4.24,1.09-3.15,.84-6.42,.34-9.6-.56-3.59-.45-7.16-.43-10.75,.01-1.91,.81-2.95,2.66-3.72,5.24-2.18,10.72-3.32,16.27-4.22,2.12-.34,2.71,.1,3.35,2.18,.46,1.5,.68,3.05,.56,4.61-.46,5.72-.52,11.52-1.54,17.14-1.28,7.11-4.85,13.28-10.17,18.2-3.42,3.17-7.24,5.9-11.95,7.03-1.42,.34-2.76,.46-4.24,.22-3.9-.62-7.75-1.45-11.56-2.47-5.28-1.41-9.38-4.26-12.79-8.64-4.96-6.35-7.32-13.5-8.93-21.26-1.71-8.25-1.64-16.38-.55-24.61,.43-3.24,.18-3.45-3-3.64-3.49-.21-6.92,.5-10.39,.52-14.37,.08-28.74-.1-43.1,.34-9.36,.29-18.64-.32-27.95-.75-3.47-.16-6.88,.71-10.29,1.36-1.09,.21-1.6,.88-1.68,2-.11,1.67-.4,3.33-.45,5-.1,3.23-.27,6.48-.08,9.7,.52,8.9-.46,17.7-1.66,26.48-.75,5.47-.86,10.99-1.08,16.46-.41,10.38-2.83,20.1-7.65,29.26-.61,1.17-1.19,2.35-1.7,3.57-3.08,7.32-6.84,14.15-12.23,20.14-8.99,9.99-18.21,19.73-29.01,27.75-6.42,4.76-12.95,9.46-20.43,12.59-4.24,1.77-8.67,2.66-13.11,3.59-.94,.2-1.87,.4-2.82,.52-1.37,.17-1.65,.96-1.68,2.23-.16,8.16,.43,16.26,1.78,24.3,.26,1.55,.34,3.09,.35,4.65,.07,7.55,.14,15.1,.17,22.64,.02,4.68,.5,9.31,1.07,13.95,.42,3.34,.41,6.73,.05,10.05-.53,4.9-.59,9.81-.54,14.71,.13,12.82,.09,25.64-.16,38.46-.15,7.21-.99,14.32-3.74,21.08-1.29,3.19-4.27,3.99-6.81,1.73-2.78-2.47-4.67-5.42-4.33-9.41,.42-5.01,1.5-9.92,1.83-14.95,.47-7.04,1.21-14.02,.6-21.12-.8-9.42-.63-18.88,.28-28.31,.03-.36,.05-.72,.05-1.08,.16-14.73,1.3-29.43,.95-44.17-.08-3.23-.05-6.46-.53-9.68-.26-1.75-.14-3.6,.04-5.37,.49-4.9,.46-9.81,.38-14.72-.05-3.23-.42-3.66-3.58-3.26-6.4,.82-12.65,.33-18.79-1.53-3.09-.94-6.11-2.08-9.16-3.14-.56-.19-1.09-.53-1.81-.18-.09,.24-.31,.55-.32,.86-.14,8.73-1.29,17.41-.89,26.19,.56,12.34-.2,24.63-1.84,36.89-.68,5.07-1.2,10.22-1.13,15.39,.03,2.14-.35,4.29-.54,6.43-.16,1.71-1.07,2.48-2.8,2.62-2.85,.23-5.7,.07-8.55,.34-2.61,.24-3.61-.99-3.76-3.63-.01-.24,0-.48,0-.72,0-18.2-.85-36.4-.57-54.61,.12-7.31,.9-14.55,1.77-21.8,.78-6.52,1.47-13.08,.46-19.67-.31-2.04-1.2-3.51-2.71-4.85-12.19-10.82-20.37-24.32-25.96-39.47-1.02-2.78-1.36-5.81-1.97-8.74-1.54-7.37-3.88-14.56-5.14-22-.29-1.73-.51-3.44-.24-5.16,1.43-.23,1.96,.71,2.63,1.32,3.59,3.34,7.12,6.75,10.75,10.05,1.3,1.18,2.04,2.46,2.39,4.23,1.75,9.08,4.23,17.94,8.94,26.01,.6,1.03,1.09,2.17,1.85,3.06,4.93,5.77,8.46,12.47,12.72,18.69,5.89,8.6,13.68,14.55,24.3,16.28,6.82,1.11,13.57,.6,20.39,.12,8.15-.58,16.19-1.72,24.03-3.91,13.51-3.77,24.89-11.02,33.74-21.95,4.6-5.68,9.71-10.92,14.02-16.83,.35-.48,.83-.89,1.11-1.41,2.75-5.03,5.55-10.04,8.17-15.14,4.4-8.56,5.3-18.08,7.27-27.3,1.03-4.78,2.14-9.56,2.54-14.48,.2-2.42-.23-4.78-.1-7.15,.68-12.8,.28-25.62,.97-38.42,.41-7.65,.24-15.33,.32-23,.02-1.92-.04-3.86,1.44-5.38,1.25-.15,2.28,.44,3.36,.91,1.62,.71,3.28,1.33,5.1,1.2Z"/>
      <path class="cls-3" d="M155.01,515.28c1.1-.71,2.2-1.43,3.32-2.12,.93-.57,2.04-1.22,2.96-.32,1.15,1.13,.01,2.18-.56,3.17-.18,.3-.45,.56-.71,.8-5.19,4.78-10.15,9.86-16.08,13.74-5.92,3.87-12.5,5.33-19.52,4.4-3.08-.41-6.11-1.13-9.17-1.67-3.55-.63-6.14-3.14-9.23-4.68-8.66-4.33-15.5-11.15-23.01-17.05-.37-.29-.63-.74-1.41-.73-.93,3.01-2.87,5.54-4.76,8.12-1.85,2.52-3.09,5.37-4.06,8.36-2.19,6.71-4.43,13.4-6.73,20.08-.66,1.94-.99,3.93-1.48,5.9-1.07,4.3-2.48,8.49-4.57,12.43-2.81,5.3-4.68,11.01-6.79,16.61-2.94,7.84-5.71,15.74-8.61,23.59-.75,2.02-1.77,3.93-2.6,5.91-.57,1.36-.46,2.41,1.08,3.27,2.22,1.24,4.46,2.33,7,2.6,10.22,1.09,20.39,2.65,30.68,3.15,4.05,.2,8.11,.21,12.16,.65,3.21,.35,3.92-.51,3.46-3.72-.54-3.79-1.53-7.51-2.05-11.3-.73-5.33-.7-10.82-1.9-16.03-2.69-11.67-4.64-23.47-6.75-35.24-.32-1.76-.66-3.54-1.23-5.24-1.96-5.86-1.67-12.07-2.98-18.03-.21-.97,.07-1.92,.72-2.7,.76-.91,1.44-2.09,2.76-2.09,1.45,0,1.84,1.32,2.28,2.43,.53,1.34,1.16,2.64,1.55,4.02,3.17,11.41,7.07,22.63,8.9,34.37,.76,4.85,.66,9.8,1.6,14.64,1.13,5.87,2.23,11.73,4.09,17.45,1.07,3.29,1.73,6.72,2.43,10.11,.75,3.64,1.83,7.18,2.83,10.76,.49,1.74,1.55,2.24,3.1,2.38,9.17,.84,18.33,1.94,27.52,2.47,10.5,.6,21.04,.68,31.56,1.01,1.43,.04,2.93-.01,4.27,.4,2.11,.65,4.22,.7,6.37,.79,1.9,.08,3.8,.45,5.68,.79,1.72,.31,2.38,1.43,2.12,3.14-.25,1.67-1.22,2.67-2.86,2.65-1.67-.01-3.34-.27-4.99-.53-5.94-.92-11.94-.77-17.92-.85-.71,0-1.43,.1-2.14,.18-1.71,.18-2.49,1.06-2.44,2.86,.13,4.67-.03,9.35,.27,14,.46,7.08,.32,14.08-.62,21.13-.93,6.99-1.2,14.08-1.19,21.15,0,.6,.02,1.2-.01,1.8-.2,4.09-1.77,5.59-5.82,5.58-3.1,0-4.17-1.11-4.53-4.21-1.4-12.21-.62-24.39,.42-36.57,.23-2.63,.45-5.26,.2-7.89-.42-4.34,.53-8.58,.93-12.86,.57-6.08,.25-6.48-5.75-5.85-6.22,.66-12.43,.46-18.65,.1-2.87-.17-5.75-.34-8.6,.13-2.57,.42-2.91,.84-2.39,3.31,2.66,12.65,4.47,25.46,7.16,38.11,1.42,6.68,2.63,13.38,5.15,19.77,.36,.92,.46,1.86,.4,2.82-.09,1.39-.73,2.26-2.23,2.23-2.87-.06-5.74-.09-8.61-.23-2.02-.1-3.2-1.16-3.71-3.22-1.16-4.64-2.41-9.22-2.77-14.06-.36-4.88-1.44-9.7-2.2-14.55-.11-.71-.33-1.43-.28-2.13,.67-10.31-3.31-19.73-5.49-29.5-.33-1.49-1.09-2.35-2.56-2.56-.82-.11-1.72-.35-2.48-.15-7.42,1.98-15.04,.3-22.53,1.29-3.38,.44-6.91-.29-10.37-.54-7.64-.55-15.27-1.15-22.9-1.68-3.12-.22-4.07,.44-5,3.41-.75,2.4-1.35,4.84-2.05,7.25-.5,1.72-.83,3.54-1.62,5.12-2.64,5.27-4.3,10.9-6.19,16.45-2.71,7.93-5.94,15.66-8.91,23.49-1.18,3.12-1.93,6.4-2.86,9.62-.9,3.13-1.57,3.77-4.73,3.79-2.15,.02-4.3-.22-6.45-.34-1.59-.09-2.1-1.08-1.79-2.46,1.28-5.83,2.07-11.8,4.84-17.21,2.74-5.35,4.76-10.96,6.28-16.77,1.06-4.06,2.56-7.97,4.23-11.82,3.43-7.91,6.23-16.05,8.88-24.25,1.84-5.68,3.68-11.38,6.3-16.78,.89-1.82,1.5-3.78,2.21-5.68,3.49-9.3,6.99-18.59,10.45-27.9,1.55-4.17,4-7.89,5.77-11.96,2.49-5.73,3.63-11.89,5.8-17.71,4.94-13.22,8.81-26.82,13.89-40,1.83-4.76,4.51-8.97,7.27-13.15,1.86-2.82,3.68-2.99,6.13-.47,3.51,3.61,7.29,6.91,10.9,10.39,5.37,5.16,11.94,7.33,18.89,8.83,5.71,1.23,11.44,.73,17.15-.12,2.72-.41,4.82-2.04,6.86-3.71,2.03-1.67,3.99-3.44,5.96-5.18,1.39-1.23,2.95-1.95,4.84-1.8l-.08-.09c.69,2.36-.95,3.97-1.93,5.61,.2,1.02,.91,.79,1.42,.98,1.83,.7,2,1.15,1.2,2.86-.1,.21-.27,.39-.38,.6-.52,1.01-1.78,2.33-.81,3.13,1.26,1.02,2.55-.26,3.58-1.23,.77-.73,1.47-1.54,2.53-1.9,1.68-.58,2.14-.16,2.21,2.09-.32,.16-.6,.42-.32,.74,.27,.31,.59,.04,.85-.16Z"/>
      <path class="cls-3" d="M131.16,60.47c1.71,2.73,2.12,5.45,2.61,8.14,.11,.59-.03,1.26,.2,1.78,1.7,3.9-.04,6.71-2.48,9.67-3.91,4.73-6.57,10.26-9.14,15.81-.77,1.66-1.17,3.44-1.26,5.21-.63,12.41-2.53,24.76-1.44,37.26,.36,4.09,1.61,7.99,1.96,12.03,.85,10.04,3.08,19.84,4.92,29.71,1.34,7.16,2.77,14.3,5.49,21.13,1.24,3.1,1.73,6.49,2.03,9.83,.47,5.08,2.14,9.82,3.82,14.54,2.29,6.43,2.86,13.05,2.9,19.77,.03,4.67,.33,9.31,.93,13.96,1.24,9.63,1.38,19.34,1.53,29.03,.1,6.53-2.33,12.57-5.41,18.05-3.74,6.65-10.44,9.68-18.4,5.65-4.45-2.25-7.74-5.82-10.45-9.67-4.52-6.41-10.43-11.56-15.16-17.73-6.77-8.85-14.98-16.46-21.52-25.53-3.28-4.55-7.72-8.11-13.14-10.13-1.11-.41-2.29-.75-3.46-.87-3.25-.34-5.14,.52-6.33,3.52-3.77,9.6-6.16,19.42-3.31,29.78,1.05,3.81,2.39,7.49,3.87,11.16,4.23,10.56,9.78,20.51,13.94,31.09,1.18,3,2.07,6.11,3.34,9.09,2.84,6.65,6.44,12.79,11.15,18.3,2.25,2.63,4.19,5.53,6.23,8.34,1,1.38,1.7,2.91,1.61,4.67-.09,1.86-1.05,2.51-2.87,2.13-1.52-.32-2.43-1.43-3.45-2.44-1.09-1.09-2.12-2.26-4.02-1.36-1.15,.54-1.7-.43-2.03-1.41-.55-1.66-.81-3.49-2.86-4.75-.78,2.11-.64,3.98,.01,5.91,.43,1.29,1.53,2.97-.22,3.82-1.72,.84-2.35-1.17-3.19-2.17-3.12-3.69-5.48-7.83-6.92-12.48-1.28-4.13-3.07-8.04-4.97-11.91-2.27-4.61-4.03-9.46-6.02-14.19-2.59-6.18-4.47-12.62-7.3-18.7-3.73-8.02-5.03-16.68-5.89-25.4-.24-2.4-.59-4.72-1.35-7.02-2.92-8.9-.84-17.17,4.09-24.61,5.11-7.7,12.9-9.78,21.76-8.46,2.09,.31,3.7,1.62,5.37,2.79,4.45,3.11,7.82,7.38,11.83,10.96,.8,.72,1.46,1.61,2.32,2.25,8.26,6.1,14.03,14.33,19.51,22.79,1.76,2.72,3.63,5.34,5.78,7.77,.95,1.08,1.96,2.13,2.71,3.35,2.95,4.74,6.87,8.56,11.05,12.18,4.78,4.13,10.95,2.91,13.61-2.92,2.96-6.49,4.46-13.35,4.9-20.47,.37-6.01,.25-11.91-1.38-17.8-1.8-6.51-1.52-13.3-2.01-19.98-.38-5.18-1.41-10.18-3.5-14.94-1.46-3.31-2.2-6.83-2.99-10.33-1.44-6.4-2.81-12.8-4.93-19.06-1.64-4.84-2.31-10.02-3.2-15.09-1.14-6.48-2.7-12.86-4.18-19.27-1.19-5.14-2.04-10.36-2.33-15.61-.4-7.56-1.98-14.94-3.1-22.38-1.53-10.18-2.95-20.37-3.42-30.66-.53-11.64,4.72-20.53,13.51-27.51,3.16-2.51,6.86-4.32,10.63-6.64Z"/>
      <path class="cls-2" d="M546.35,388.83c0,1.8-.11,3.6,.02,5.39,.93,12.72-2.7,24.38-8.19,35.61-1.06,2.17-2.47,4.12-3.98,5.97-8.04,9.9-16.95,18.78-27.91,25.58-6.64,4.12-13.3,8.05-20.79,10.39-1.44,.45-1.69,1.4-1.76,2.72-.33,6.72,.08,13.4,.98,20.06,.19,1.42,.41,2.85,.41,4.28,0,12.46,.2,24.91,.55,37.37,.2,7.05,.34,14.12-.35,21.18-.5,5.12,.25,10.28,.36,15.42,.24,10.9,.1,21.81,.25,32.71,.07,5.26,.48,10.52,.68,15.78,.12,3.2-.03,3.38-3.08,4.25-2.08,.59-4.17,1.05-6.33,.25-4.58-1.7-5.42-2.91-5.72-7.91-.83-13.62-.98-27.27-1.58-40.9-.53-11.85-.38-23.7-.92-35.55-.27-5.95,.49-11.95,.79-17.92,.05-.96,.19-1.91,.25-2.86,.27-5.14,.23-10.28,.66-15.42,.54-6.46-.28-12.91-.93-19.34-.72-7.17-.39-14.36-.47-21.55-.02-2.12,1.42-2.88,3.17-3.29,6.77-1.57,13.21-4.26,19.92-6.01,5.91-1.54,10.51-4.96,15.09-8.66,6.23-5.03,11.13-11.16,15.53-17.78,2.3-3.47,3.43-7.35,4.56-11.26,2.32-8.07,3.32-16.41,5.19-24.56,1.92-8.38,2.2-16.82,2.14-25.33,0-1.33,.07-2.64,.72-3.84,.53-.98,1.19-1.56,2.21-.54,1.28,1.29,2.87,1.71,4.61,1.54,2.05-.19,2.8,.97,3.01,2.72,.33,2.73,.93,5.42,.88,8.2-.08,4.43-.02,8.87-.02,13.3,.02,0,.04,0,.07,0Z"/>
      <path class="cls-2" d="M151.77,358.65c-.18-6.04,.62-11.92,2.7-17.63,.69-1.9,1.14-3.91,1.53-5.9,2.01-10.23,6.78-19.22,13.03-27.32,7.64-9.9,17.22-17.52,28.87-22.44,4.74-2,9.43-4.08,14.31-5.74,9.59-3.28,18.09-.81,26.15,4.49,2.2,1.45,4.32,3.01,6.5,4.5,6.16,4.21,9.83,10.36,12.98,16.87,3.87,8,5.74,16.42,5.42,25.37-.22,6.2-2.29,11.61-5.66,16.74-4.85,7.37-11.69,12.28-19.4,16.06-6.31,3.09-12.86,2.63-19.03-.47-4.61-2.32-7.18-6.74-8.82-11.39-1.91-5.43-2.72-11.15-2.4-16.97,.03-.48,.04-.96,.11-1.43,.63-4.41,1.28-4.97,5.79-4.72,3.81,.21,7.57,1.03,11.42,1,2.07-.02,2.44,.56,2.02,2.72-1.35,6.85,1.18,12.74,4.51,18.38,2.12,3.6,6.95,4.37,10.23,1.63,8.66-7.24,13.26-16.51,13.31-27.87,.02-3.69-1.46-7.01-3.33-10.11-3.21-5.32-7.74-9.04-13.69-10.98-6.14-2.01-12.27-4.15-18.59-5.38-5.29-1.03-10.78-.96-16.08,.06-4.56,.88-8.22,3.9-11.72,6.76-4.26,3.48-8.23,7.35-11.69,11.65-7.98,9.9-12.56,21.42-15.17,33.73-.79,3.72-.81,7.6-1.16,11.41-.54,5.87-.98,6.29-6.99,6.45-.6,.02-1.2,.05-1.8,.04-2.83-.04-3.27-.46-3.36-3.36-.06-2.03-.01-4.07-.01-6.11Z"/>
      <path class="cls-3" d="M207.48,115.57c-.03,4.34-.31,9.81-.96,15.3-1.14,9.63-2.19,19.27-2.88,28.94-.58,8.13-1.08,16.24-2.79,24.23-.37,1.74-.36,3.57-.44,5.36-.26,6-1.46,11.87-2.56,17.75-.26,1.39-.85,2.75-1.47,4.03-1.92,3.96-6.55,4.91-9.88,1.99-2.2-1.93-3.71-4.41-4.7-7.13-2.89-7.98-5.95-15.91-8.44-24.04-1.19-3.89-2.42-7.77-3.68-11.63-.89-2.73-1.85-5.44-2.25-8.3-.64-4.65-1.79-9.14-3.68-13.45-2.72-6.21-3.15-12.99-4.68-19.5-1.47-6.29-2.76-12.61-4.62-18.8-1.41-4.7-1.77-9.63-3.03-14.38-1.19-4.45-2.8-8.65-5.72-12.25-.65-.8-.97-1.57-1.06-2.56-.38-4.36,.24-8.6,1.33-12.8,.19-.73,.4-1.47,1.2-1.61,1-.17,1.48,.59,1.85,1.38,.25,.54,.53,1.08,.73,1.64,2.46,7.24,5.32,14.35,6.96,21.87,.61,2.8,1.42,5.57,2.42,8.26,2.82,7.54,4.34,15.36,5.88,23.25,2.22,11.38,4.29,22.86,8.03,33.85,1.98,5.8,3.68,11.61,4.92,17.59,.61,2.94,1.68,5.71,2.9,8.47,2.96,6.67,5.35,13.57,7.73,20.46,.44,1.27,.48,3.34,2.37,3.06,1.42-.21,1.28-2.08,1.58-3.33,2.02-8.41,2.24-17.03,3.17-25.57,1.29-11.79,2.25-23.61,2.62-35.45,.37-12.1,1.95-24.09,2.48-36.18,.56-12.79,1.85-25.54,3.17-38.29,1.11-10.73,2.38-21.42,4.64-31.95,2.45-11.44,7.25-21.8,15.89-30.01,2.89-2.75,6.21-4.85,10.27-5.53,4.49-.75,8.33,.31,11.2,4,1.91,2.45,3.7,5,5.63,7.45,.85,1.08,.74,1.91-.19,2.79-2.61,2.47-5.21,4.94-7.81,7.42-.97,.92-1.97,1.11-3.26,.59-1.77-.72-3.62-1.22-5.43-1.85-3.53-1.24-6.46-.25-9.28,2.07-5.19,4.28-7.49,10.08-9.09,16.31-2.2,8.6-3.36,17.38-4.48,26.17-.94,7.35-2.54,14.64-3.1,22.02-.69,9.05-2.39,18.07-1.49,28.38Z"/>
      <path class="cls-3" d="M253.75,172.95c-.08-12.29,.04-21.75,1.14-31.17,.41-3.58,.55-7.16,.48-10.76-.19-10.66-.03-21.32,1.14-31.94,.7-6.32,.14-12.68,.5-19.02,.49-8.64-.82-17.21-1.17-25.81-.12-3.04-1.48-5.8-2.82-8.47-1.71-3.39-1.58-6.29,1.11-9.19,2.35-2.54,4.46-5.35,4.85-9.02,.04-.34,.26-.66,.4-.99,.52-1.24,1.04-2.61,2.7-2.37,1.42,.21,1.69,1.51,1.93,2.72,1.48,7.34,2.05,14.72,.48,22.12-.63,2.97-.76,5.95-.47,8.93,1.21,12.33,1.05,24.64-.33,36.94-.39,3.45-1.02,6.87-1.42,10.31-1.04,8.96-.48,17.96-.5,26.94-.04,15.09-.34,30.17-.19,45.26,.05,4.99-.74,10.01-.57,15.05,.07,2.04,.19,4.07,.6,6.07,.23,1.1,.66,2.15,1.82,2.46,1.09,.3,1.73-.6,2.35-1.32,3.1-3.57,5.71-7.56,6.68-12.15,3.6-16.96,8.08-33.74,10.5-50.97,1.33-9.47,3.51-18.82,6.11-28.05,1.24-4.39,3.54-8.38,5-12.69,3.84-11.32,10.59-20.85,18.1-29.93,3.74-4.52,8.68-7.16,14.14-8.76,6.09-1.79,12.35,2.25,13.55,8.47,.75,3.9,.95,7.84,.21,11.79-.62,3.31-2.1,6.1-4.69,8.25-2.12,1.76-3.04,1.5-3.75-1.08-.66-2.42-1.14-4.9-1.81-7.32-.61-2.22-1.69-4.2-3.32-5.88-1.3-1.34-2.76-1.72-4.56-1.32-3.42,.75-5.8,2.94-7.47,5.76-2.26,3.83-4.93,7.36-7.35,11.06-3.04,4.65-4.75,9.91-6.45,15.15-.18,.57-.21,1.19-.46,1.72-4.86,10.6-7.24,22.02-11.05,32.97-1.46,4.18-2.02,8.61-2.61,13.01-1.2,9.03-3.62,17.81-5.56,26.69-1.21,5.54-2.85,10.84-5.34,15.93-1.89,3.86-3.47,7.87-5.14,11.84-1.1,2.61-2.8,4.75-5.04,6.43-4.33,3.25-9.32,1.38-10.22-3.93-.88-5.18-1.52-10.41-1.49-15.69,.03-6.95,0-13.9,0-18.02Z"/>
      <path class="cls-3" d="M146.74,502.66c.25-1.29,.58-2.55,1.19-3.74,3.55-6.96,4.61-14.5,4.99-22.18,.12-2.39,.16-4.78,.27-7.17,.32-6.71-1.48-12.91-3.79-19.17-2.91-7.88-7.38-14.49-12.73-20.93-7.08-8.52-14.9-16.17-23.1-23.52-.53-.48-1.06-.99-1.66-1.37-7.45-4.77-14.22-10.5-21.68-15.27-5.26-3.37-9.28-8.22-13.04-13.22-.28-.38-.49-.83-.67-1.27-.28-.7-.36-1.43,.29-1.97,.65-.54,1.31-.3,1.97,.11,.84,.53,1.3,1.8,2.6,1.48,.14-.26,.35-.48,.32-.66-.15-1.2-1.41-2.6,.26-3.5,1.41-.76,2.42,.5,3.47,1.25,.39,.28,.78,.55,1.08,.76,1.01,.12,.92-.63,1.13-1.13,.6-1.45,1.66-1.34,2.56-.51,1.39,1.27,2.6,2.73,3.86,4.07,.47-.28,.63-.5,.55-.92-.19-.95-.42-2.09,.78-2.43,1.08-.31,1.68,.65,2.23,1.46,1.08,1.58,2.25,3.1,3.25,4.73,5.16,8.41,12.49,14.71,19.96,20.93,5.88,4.89,11.53,10.06,17.14,15.27,3.7,3.43,6.03,8.03,9.41,11.76,3.46,3.8,6.35,8.08,9.95,11.79,1.47,1.52,2.57,3.48,3.51,5.39,3.94,8.03,8.61,15.69,11.31,24.36,2.08,6.7,2.94,13.15,1.26,20.07-1.28,5.24-2.57,10.44-4.57,15.45-1.22,3.07-2.8,5.78-5.9,7.36-.73,.37-1.32,1.14-2.22,.7-.93-.46-.79-1.36-.67-2.21,.05-.33,.19-.71-.2-.98-.65-.45-1.08,.07-1.55,.37-.88,.55-1.42,.12-1.46-.73-.05-1.17,.13-2.35,.23-3.88-1.79,.62-2.07,2.25-2.91,3.35-.38,.5-.82,.97-1.47,.73-.58-.21-.86-.76-.98-1.4-.3-1.63,.67-3.01,.87-4.74-1.28-.63-2.41-.49-3.35,.62-.71,.82-1.55,1.02-2.56,.81,0,0,.08,.08,.08,.08Zm12.99,3.34c-.27,.42-.25,.89,.19,1.04,.17,.05,.55-.54,.83-.83,.63-.96,1.3-1.91,.81-3.52-.83,1.23-1.54,2.14-1.83,3.32Z"/>
      <path class="cls-2" d="M362.42,577.67c.15-11.97-.23-23.95-.96-35.89-.68-11.14-.84-22.26-.34-33.37,.39-8.52-.06-16.96-.79-25.41-.38-4.39,.28-8.32,3.81-11.38,2.59-2.25,4.87-1.86,6.21,1.29,.99,2.34,1.22,4.84,1.34,7.37,.46,9.92,.57,19.87,1.56,29.74,1.57,15.74,1.74,31.52,2.11,47.3,.27,11.36,.87,22.71,1.54,34.05,.62,10.63,1.08,21.26,1.26,31.9,.06,3.55-.43,4.25-3.82,4.79-2.34,.37-4.74,.71-7.05-.37-1.78-.84-2.79-2.13-2.89-4.16-.56-10.98-1.94-21.92-1.97-32.94-.01-4.31,0-8.62,0-12.93Z"/>
      <path class="cls-3" d="M203.57,649.89c3.8-2.75,7.46-5.15,10.85-7.9,4.35-3.53,9.28-5.3,14.75-5.93,6.08-.7,9.78,1.27,12.5,6.76,1.83,3.69,2.67,7.57,2.94,11.72,.85,13.04-.17,26.09,.53,39.13,.08,1.49,.56,3.39-1.35,4.07-2.05,.73-4.25,.73-6.32-.15-1.16-.49-.8-1.64-.71-2.54,.64-6.22,.39-12.44,.27-18.66-.1-4.91-.18-9.81-.3-14.72-.05-2.16-.33-4.26-1.16-6.31-1.7-4.21-3.81-5.82-8.36-5.99-6.84-.24-12.55,2.47-17.62,6.81-.82,.7-1.5,1.55-2.29,2.28-2.2,2.07-3.31,4.53-3.42,7.61-.3,8.61-.76,17.22-1.16,25.83-.04,.84,0,1.68-.12,2.51-.26,1.73-1.14,2.86-3.06,2.85-1.08,0-2.15,.1-3.23,.08-3.55-.08-4.2-.65-4.03-4.21,.67-13.87,1.4-27.73,2.17-41.59,.67-12.2,1.08-24.4,1.01-36.62-.02-3.47-.11-6.96,.15-10.41,.58-7.52,.2-15.08,1.01-22.59,.05-.48,.1-.95,.16-1.43,.5-3.74,1.55-4.45,5.22-3.74,1.66,.32,2.41,1.08,2.46,2.88,.24,7.67-.15,15.32-.57,22.97-.33,6.09-.85,12.16-.54,18.28,.41,8.25,.2,16.52-.03,24.78-.04,1.26-.31,2.55,.26,4.21Z"/>
      <path class="cls-2" d="M297.12,502.7c0-7.04,.05-13.86-.02-20.69-.04-3.42,1.9-5.84,3.91-8.2,.88-1.04,2.18-.87,3.25-.03,1.07,.83,1.69,1.93,2.06,3.27,1.55,5.68,2.29,11.49,2.65,17.34,.24,3.82,.31,7.66,.27,11.49-.12,12.7,.46,25.38,.78,38.06,.63,25.26,.46,50.52,.31,75.79-.01,2.27-.24,4.54-.48,6.8-.32,3.06-2.05,4.65-5.13,4.86-.48,.03-.96,.05-1.44,.05-3.35-.02-4.58-.99-4.81-4.4-.27-3.93-.78-7.84-.81-11.81-.17-18.79-.26-37.59-.85-56.38-.31-9.94-.75-19.88-.32-29.79,.38-8.86,.23-17.71,.65-26.35Z"/>
      <path class="cls-3" d="M396.88,206.93c-.23-3.04,.21-5.68,.85-8.18,1.7-6.72,1.51-13.54,1.58-20.35,.04-3.72-1.43-5.27-5.09-5.63-4.48-.44-8.43,.78-11.91,3.82-8.67,7.58-16.55,15.93-24.48,24.24-5.53,5.8-10.98,11.7-16.69,17.32-4.17,4.11-8.94,7.57-13.11,11.7-1.21,1.2-2.81,1.79-4.43,2.27-4.62,1.37-6.56,.26-9.02-3.98-3.91-6.71-3.37-13.8-2.31-20.95,.65-4.37,1.93-8.63,3.06-12.91,1.55-5.89,2.72-11.89,3.86-17.88,.52-2.72,1.33-5.33,2.15-7.95,1.71-5.5,2.6-11.18,3.54-16.84,.26-1.53,.53-3.08,1.03-4.54,3.42-9.97,4.88-20.45,7.98-30.52,1.43-4.64,1.45-9.68,2.61-14.46,1.09-4.46,3.22-8.49,5.12-12.61,.15-.32,.36-.63,.61-.88,.71-.73,1.3-2.06,2.54-1.43,1.06,.54,.45,1.69,.26,2.6-1.51,7.25-2.98,14.47-3.95,21.85-1.06,8-2.76,16.04-5.51,23.73-3.75,10.49-6.06,21.38-8.83,32.14-.27,1.03-.32,2.12-.41,3.19-.28,3.48-.98,6.85-2.02,10.19-2.1,6.74-3.83,13.58-5.32,20.48-1.4,6.49-1.15,13.1-1.05,19.68,.02,1.17,.4,2.37,.8,3.48,.86,2.42,2.27,3,4.4,1.43,6.22-4.59,13.04-8.37,17.93-14.73,3.33-4.33,7.49-8.04,11.43-11.86,4.39-4.25,8.53-8.71,12.64-13.23,3.86-4.24,7.82-8.41,12.24-12.09,1.65-1.38,3.27-2.78,4.86-4.24,3.22-2.97,7-5.11,11.37-5.77,7.72-1.17,16.02,5.78,16.67,13.83,.18,2.27,.3,4.53,.62,6.79,.49,3.56-.24,6.93-2.08,10.01-2.22,3.72-4.95,7.05-8.01,10.1-1.01,1.01-2.12,1.9-3.92,2.17Z"/>
      <path class="cls-3" d="M463.74,698.3c-6.55,.4-12.82-.48-19.09-1.51-1.18-.2-2.39-.4-3.4-1.06-6.13-4.02-9.53-9.83-9.8-17.03-.27-6.92,3.85-11.55,9.56-14.9,2.96-1.74,6.21-2.42,9.58-2.68,8.58-.67,17.15-1.37,25.73-2.05,2.74-.22,2.93-.37,1.76-2.97-1.78-3.96-4.54-6.88-8.91-8.2-7.2-2.17-14.5-4.04-21.51-6.8-1.91-.75-3.87-1.23-5.85-1.66-1.65-.36-2.01-1.43-1.92-2.92,.09-1.53,.71-2.54,2.32-2.65,3.1-.21,6.23-.54,9.3,.13,7.7,1.69,15.51,2.84,23.08,5.14,4.86,1.47,8.18,4.37,10.02,8.97,1.24,3.11,1.98,6.35,2.11,9.76,.22,5.74,.56,11.48,1.08,17.19,.54,5.86,.45,11.71,.4,17.58-.01,1.7-.75,2.71-2.23,3.27-1.34,.52-2.72,.88-4.16,1.06-6.06,.75-12.13,1.33-18.06,1.33Zm.45-9.17c4.25-.02,8.88-.49,13.49-1.18,2.42-.36,2.56-.55,2.3-3.07-.45-4.41-.5-8.82-.35-13.24,.1-2.85,.08-3.01-2.89-3.1-5.97-.17-11.95,0-17.85,.99-4.3,.72-7.74,2.85-10.03,6.77-3.06,5.23-.32,11.39,5.63,12.14,3.07,.39,6.19,.45,9.7,.7Z"/>
      <path class="cls-2" d="M432.73,484.92c-1.6,16.14-.48,32.33-.9,48.49-.27,10.43,1.4,20.76,2.07,31.15,.31,4.78,.35,9.56,.92,14.33,1.66,13.82,1.45,27.72,1.45,41.61,0,4.1-2.78,6.44-6.73,5.56-4.34-.96-5.12-1.8-5.27-6.31-.34-10.41-.65-20.83-.84-31.25-.13-7.31-.41-14.59-1.28-21.85-.04-.36-.05-.72-.05-1.08,.04-12.7-1.07-25.36-1.49-38.04-.29-8.64,.27-17.22,1.17-25.81,.48-4.63,.47-9.32-.18-13.98-.6-4.28-.57-8.61-.44-12.92,.08-2.57,2.75-5.21,5.25-5.54,1.29-.17,2.04,.53,2.73,1.37,2.26,2.79,3.32,6.06,3.58,9.6,.12,1.55,.02,3.11,.02,4.67Z"/>
      <path class="cls-3" d="M412.76,667.26c-5.67,.91-10.66-.07-15.67-.3-2.87-.13-5.74-.23-8.61-.32-1.57-.05-2.28,.59-2.44,2.31-.48,5.12,.82,9.46,4.8,12.88,2.18,1.88,4.32,3.79,6.4,5.77,1.92,1.84,4.2,2.21,6.66,1.8,4.19-.69,7.98-2.48,11.63-4.55,1.87-1.06,2.62-3.07,3.78-4.72,2.03-2.9,2.54-2.96,4.62-.27,1.89,2.44,1.94,2.66,.14,5.36-4.46,6.66-14.97,13.98-27.62,11.28-5.92-1.26-10.86-3.97-14.92-8.61-7.11-8.13-10.03-17.27-7.71-27.91,.99-4.54,3.07-8.54,6.41-11.84,2.39-2.35,4.64-4.88,7.22-6.99,8.07-6.58,16.87-9.92,27.25-5.64,2.74,1.13,5.03,2.69,6.65,5.22,1.8,2.82,3.55,5.68,5.26,8.56,2.84,4.77,1.62,9.48,.13,14.21-.38,1.2-1.51,1.81-2.63,2.31-2.11,.93-4.32,1.4-6.62,1.43-1.79,.03-3.59,0-4.75,0Zm-3.69-23.78c-4.41,.44-8.71,1.34-12.84,2.98-4.44,1.76-6.96,5.27-8.49,9.61-.68,1.92-.41,2.27,1.62,2.35,3.94,.16,7.87,.35,11.77,.97,1.78,.28,3.56,.24,5.29-.41,4.43-1.67,8.21-4.29,11.59-7.6,1.13-1.11,1.04-2.1,.19-3.11-2.37-2.82-5.08-5.09-9.13-4.78Z"/>
      <path class="cls-3" d="M275.39,665.09c-1.83,0-5.18-.02-8.53,0-1.55,.01-3.11,.11-4.66,.18-1.51,.08-2.29,.75-2.52,2.4-1.03,7.38,2.03,13.76,8.34,17.75,4.41,2.79,8.9,3.93,13.95,2.05,1.84-.68,3.47-1.63,4.75-3.1,1.25-1.45,2.53-2.88,3.64-4.44,2.73-3.85,1.93-3.11,5.21,0,1.04,.99,1.03,2.07,.29,3.23-3.82,6.01-8.74,10.85-15.42,13.47-7.17,2.82-16.6,.32-21.65-5.47-6.42-7.35-9.92-16.13-11.06-25.63-1.02-8.49,2.62-15.61,8.76-21.46,4.7-4.48,10.21-7.52,16.47-9.08,4.82-1.2,9.32-.41,13.83,1.92,7.12,3.68,10.03,9.54,10.31,17.16,.08,2.15,.19,4.31,.19,6.46,0,2.51-.28,2.91-2.84,3.14-5.84,.51-11.69,.87-19.07,1.41Zm12.53-15.33c-1.79-1.7-3.17-3.01-4.55-4.32-4.43-4.22-13.67-4.36-18.18-.27-.18,.16-.36,.32-.49,.52-1.98,3.03-3.26,6.37-4.36,9.79-.24,.73,0,1.43,1.03,1.43,5.25-.04,10.5,.01,15.44-2.24,3.47-1.58,6.98-3.08,11.11-4.9Z"/>
      <path class="cls-3" d="M312.3,663.63c0-9.32-.04-15.55,.02-21.78,.03-2.97,.11-2.93,3-3.08,1.91-.1,3.81-.32,5.72-.49,2.37-.22,3.2,.44,2.88,2.75-.37,2.62-.5,5.25-.54,7.88-.03,2.27,.6,2.58,2.53,1.25,1.68-1.15,3.27-2.43,4.85-3.7,3.66-2.93,7.47-5.6,11.79-7.47,1.31-.57,2.65-1.13,4.03-1.48,7.15-1.81,9.8,.5,11.7,5.53,.88,2.35,2.07,4.59,2.92,6.95,1.1,3.05,1.7,6.2,1.7,9.49,0,11.26,.09,22.52,.16,33.78,.02,3.67-.71,4.41-4.37,4.31-4.22-.12-5.35-.95-4.96-5.12,.89-9.56,.57-19.14,.88-28.71,.07-2.15,0-4.31,.02-6.47,.04-2.69-1.22-4.55-3.57-5.74-2.54-1.29-5.15-1.84-7.97-1.01-5.44,1.6-10.57,3.82-15.08,7.32-3.76,2.92-5.68,6.71-5.34,11.53,.21,2.99,.38,5.98,.65,8.96,.51,5.53-.39,11-.57,16.51-.07,2.35-1.1,3.14-3.43,3.24-.72,.03-1.44-.02-2.15-.09-3.66-.37-3.87-.61-4.08-4.42-.59-11-1.7-21.98-.79-29.92Z"/>
      <path class="cls-3" d="M341.42,289.8c-1.83,.13-3.48-.48-5.1-1.2-1.08-.47-2.12-1.07-3.36-.91-.43-2.01,.33-3.61,1.35-5.36,4.72-8.14,10.96-15.08,17.05-22.15,.86-1,1.76-1.99,2.43-3.11,3.51-5.88,8.05-10.99,12.16-16.42,1.07-1.41,1.96-3.17,3.89-3.51,3.06-.54,6.15-1.13,9.26-.49,1.35,.28,1.59,1.38,1.01,2.53-.37,.73-.96,1.36-1.49,2-9.3,11.25-18.57,22.52-27.91,33.74-3.78,4.54-6.76,9.56-9.27,14.88Z"/>
      <path class="cls-1" d="M155.01,515.28c-.26,.2-.58,.48-.85,.16-.28-.32,0-.58,.32-.74,.18,.19,.35,.39,.53,.58Z"/>
      <path class="cls-1" d="M159.72,506.01c.34,.07,.68,.14,1.02,.21-.28,.3-.66,.89-.83,.83-.44-.15-.46-.62-.19-1.04Z"/>
    </g>
  </g>
</svg>